<svg width="44" height="44" viewBox="0 0 44 44" fill="none" xmlns="http://www.w3.org/2000/svg">
<rect width="44" height="44" rx="22" fill="url(#paint0_linear_3604_1942)"/>
<path d="M13.3758 12.9428C17.0712 12.7586 19.9456 12.6665 21.9987 12.6665C24.052 12.6665 26.9274 12.7586 30.6247 12.9428C32.6261 13.0426 34.2448 14.6078 34.4118 16.6046C34.5808 18.6273 34.6654 20.4088 34.6654 21.949C34.6654 23.5082 34.5788 25.3145 34.4055 27.368C34.2391 29.34 32.6556 30.894 30.6806 31.0231C27.5197 31.2298 24.6257 31.3332 21.9987 31.3332C19.372 31.3332 16.4791 31.2298 13.3199 31.0232C11.3457 30.8941 9.76247 29.3411 9.59526 27.3698C9.41977 25.301 9.33203 23.4941 9.33203 21.949C9.33203 20.4226 9.41768 18.6405 9.58896 16.6028H9.58897C9.75676 14.6067 11.3752 13.0425 13.3758 12.9428Z" stroke="white" stroke-width="2" stroke-linejoin="round"/>
<path d="M20 19.0729V24.9375C20 25.2531 20.2559 25.5089 20.5714 25.5089C20.6835 25.5089 20.7931 25.476 20.8865 25.4142L25.2849 22.5072C25.5482 22.3332 25.6205 21.9787 25.4465 21.7154C25.4049 21.6525 25.3513 21.5983 25.2887 21.5563L20.8903 18.5987C20.6284 18.4227 20.2733 18.4922 20.0972 18.7541C20.0339 18.8484 20 18.9594 20 19.0729Z" stroke="white" stroke-width="2" stroke-linejoin="round"/>
<defs>
<linearGradient id="paint0_linear_3604_1942" x1="0" y1="22" x2="44" y2="22" gradientUnits="userSpaceOnUse">
<stop stop-color="#E530AD"/>
<stop offset="1" stop-color="#6757F1"/>
</linearGradient>
</defs>
</svg>
