<svg width="25" height="28" viewBox="0 0 25 28" fill="none" xmlns="http://www.w3.org/2000/svg">
<path d="M10 12C11.933 12 13.5 10.433 13.5 8.5C13.5 6.56701 11.933 5 10 5C8.067 5 6.5 6.56701 6.5 8.5C6.5 10.433 8.067 12 10 12Z" stroke="#1E1E1E" stroke-width="2" stroke-linecap="round" stroke-linejoin="round"/>
<path d="M16.8037 5.5C17.8201 6.11245 18.4999 7.22685 18.4999 8.5C18.4999 9.77315 17.8201 10.8875 16.8037 11.5" stroke="#1E1E1E" stroke-width="2" stroke-linecap="round" stroke-linejoin="round"/>
<path d="M2.5 22.4V23H17.5V22.4C17.5 20.1598 17.5 19.0397 17.0641 18.184C16.6806 17.4314 16.0686 16.8195 15.316 16.436C14.4603 16 13.3402 16 11.1 16H8.9C6.6598 16 5.5397 16 4.68404 16.436C3.93139 16.8195 3.31947 17.4314 2.93598 18.184C2.5 19.0397 2.5 20.1598 2.5 22.4Z" stroke="#1E1E1E" stroke-width="2" stroke-linecap="round" stroke-linejoin="round"/>
<path d="M22.4995 23.0001V22.4001C22.4995 20.1599 22.4995 19.0398 22.0635 18.1841C21.68 17.4315 21.0681 16.8195 20.3154 16.436" stroke="#1E1E1E" stroke-width="2" stroke-linecap="round" stroke-linejoin="round"/>
</svg>
