<svg width="63" height="62" viewBox="0 0 63 62" fill="none" xmlns="http://www.w3.org/2000/svg">
<rect x="0.5" width="62" height="62" rx="31" fill="url(#paint0_linear_3447_5438)"/>
<path d="M22.8758 21.9428C26.5712 21.7586 29.4456 21.6665 31.4987 21.6665C33.552 21.6665 36.4274 21.7586 40.1247 21.9428C42.1261 22.0426 43.7448 23.6078 43.9118 25.6046C44.0808 27.6273 44.1654 29.4088 44.1654 30.949C44.1654 32.5082 44.0788 34.3145 43.9055 36.368C43.7391 38.34 42.1556 39.894 40.1806 40.0231C37.0197 40.2298 34.1257 40.3332 31.4987 40.3332C28.872 40.3332 25.9791 40.2298 22.8199 40.0232C20.8457 39.8941 19.2625 38.3411 19.0953 36.3698C18.9198 34.301 18.832 32.4941 18.832 30.949C18.832 29.4226 18.9177 27.6405 19.089 25.6028H19.089C19.2568 23.6067 20.8752 22.0425 22.8758 21.9428Z" stroke="white" stroke-width="2" stroke-linejoin="round"/>
<path d="M29.5 28.0729V33.9375C29.5 34.2531 29.7559 34.5089 30.0714 34.5089C30.1835 34.5089 30.2931 34.476 30.3865 34.4142L34.7849 31.5072C35.0482 31.3332 35.1205 30.9787 34.9465 30.7154C34.9049 30.6525 34.8513 30.5983 34.7887 30.5563L30.3903 27.5987C30.1284 27.4227 29.7733 27.4922 29.5972 27.7541C29.5339 27.8484 29.5 27.9594 29.5 28.0729Z" stroke="white" stroke-width="2" stroke-linejoin="round"/>
<defs>
<linearGradient id="paint0_linear_3447_5438" x1="0.5" y1="31" x2="62.5" y2="31" gradientUnits="userSpaceOnUse">
<stop stop-color="#E530AD"/>
<stop offset="1" stop-color="#6757F1"/>
</linearGradient>
</defs>
</svg>
