<svg width="17" height="15" viewBox="0 0 17 15" fill="none" xmlns="http://www.w3.org/2000/svg">
<path d="M8.02447 0.463526C8.17415 0.0028708 8.82585 0.00286996 8.97553 0.463525L10.4084 4.87336C10.4753 5.07937 10.6673 5.21885 10.8839 5.21885H15.5207C16.005 5.21885 16.2064 5.83865 15.8146 6.12336L12.0633 8.84878C11.8881 8.9761 11.8148 9.20179 11.8817 9.4078L13.3145 13.8176C13.4642 14.2783 12.937 14.6613 12.5451 14.3766L8.79389 11.6512C8.61865 11.5239 8.38135 11.5239 8.20611 11.6512L4.45488 14.3766C4.06303 14.6613 3.53578 14.2783 3.68546 13.8176L5.1183 9.4078C5.18524 9.20179 5.11191 8.9761 4.93667 8.84878L1.18544 6.12336C0.793584 5.83866 0.994972 5.21885 1.47933 5.21885H6.1161C6.33272 5.21885 6.52469 5.07937 6.59163 4.87336L8.02447 0.463526Z" fill="#FFD029"/>
</svg>
