<svg width="22" height="19" viewBox="0 0 22 19" fill="none" xmlns="http://www.w3.org/2000/svg">
<path d="M1.43339 8.11233C7.97922 5.23264 16.45 1.72171 17.6193 1.23577C20.6865 -0.0361034 21.6276 0.207646 21.1584 3.02431C20.8214 5.04879 19.849 11.7514 19.074 15.9233C18.6141 18.3972 17.5823 18.6904 15.9599 17.6201C15.1797 17.105 11.2417 14.5009 10.387 13.8894C9.60682 13.3321 8.53078 12.6618 9.88026 11.3415C10.3605 10.8712 13.5084 7.86545 15.961 5.52587C16.2823 5.21858 15.8787 4.71389 15.5079 4.96025C12.2021 7.15243 7.6188 10.1951 7.03547 10.5915C6.15422 11.1899 5.30786 11.4644 3.78859 11.028C2.64068 10.6983 1.51933 10.305 1.08287 10.155C-0.597861 9.57795 -0.198903 8.83056 1.43339 8.11233Z" fill="white"/>
</svg>
