<svg width="22" height="19" viewBox="0 0 22 19" fill="none" xmlns="http://www.w3.org/2000/svg">
<path d="M2.03495 8.30007C8.58078 5.42039 17.0516 1.90945 18.2209 1.42351C21.2881 0.151641 22.2292 0.395391 21.7599 3.21206C21.423 5.23653 20.4506 11.9391 19.6756 16.111C19.2157 18.585 18.1839 18.8782 16.5615 17.8079C15.7813 17.2928 11.8433 14.6886 10.9886 14.0772C10.2084 13.5199 9.13234 12.8495 10.4818 11.5292C10.962 11.0589 14.1099 8.0532 16.5625 5.71362C16.8839 5.40632 16.4803 4.90164 16.1094 5.14799C12.8037 7.34018 8.22036 10.3829 7.63703 10.7792C6.75578 11.3777 5.90943 11.6522 4.39016 11.2157C3.24224 10.886 2.12089 10.4928 1.68443 10.3428C0.00370145 9.7657 0.402659 9.0183 2.03495 8.30007Z" fill="white"/>
</svg>
