<svg width="21" height="20" viewBox="0 0 21 20" fill="none" xmlns="http://www.w3.org/2000/svg">
<g id="Icon_Edit">
<path id="Vector" d="M13.0003 4.16682L16.3336 7.50015M18.1453 5.67682C18.5859 5.23634 18.8334 4.63888 18.8335 4.01587C18.8336 3.39285 18.5862 2.79533 18.1457 2.35474C17.7052 1.91415 17.1077 1.66658 16.4847 1.6665C15.8617 1.66643 15.2642 1.91384 14.8236 2.35432L3.70194 13.4785C3.50845 13.6714 3.36537 13.9089 3.28527 14.1702L2.18444 17.7968C2.1629 17.8689 2.16127 17.9454 2.17973 18.0184C2.19819 18.0913 2.23604 18.1578 2.28927 18.211C2.3425 18.2641 2.40912 18.3019 2.48207 18.3202C2.55502 18.3386 2.63157 18.3368 2.7036 18.3152L6.3311 17.2152C6.59208 17.1358 6.82958 16.9936 7.02277 16.801L18.1453 5.67682Z" stroke="#6757F1" stroke-width="1.5" stroke-linecap="round" stroke-linejoin="round"/>
</g>
</svg>
