<svg width="60" height="60" viewBox="0 0 60 60" fill="none" xmlns="http://www.w3.org/2000/svg">
<g clip-path="url(#clip0_4670_9934)">
<path d="M0 20.9628V19.0366C0 18.5184 0.419769 18.0991 0.9375 18.0991C1.45523 18.0991 1.875 18.5184 1.875 19.0366V20.9628C1.875 21.481 1.45523 21.9003 0.9375 21.9003C0.419769 21.9003 0 21.481 0 20.9628ZM0.9375 14.1962C1.45523 14.1962 1.875 13.7769 1.875 13.2587V11.3324C1.875 10.8142 1.45523 10.3949 0.9375 10.3949C0.419769 10.3949 0 10.8142 0 11.3324V13.2587C0 13.7769 0.419769 14.1962 0.9375 14.1962ZM29.9492 1.875H31.9514C32.4692 1.875 32.8505 1.45569 32.8505 0.9375C32.8505 0.419312 32.3927 9.375e-09 31.875 9.375e-09H29.9492C29.4315 9.375e-09 29.0117 0.419312 29.0117 0.9375C29.0117 1.45569 29.4315 1.875 29.9492 1.875ZM0.948944 6.4801C1.04004 6.50757 1.13159 6.52039 1.22223 6.52039C1.62415 6.52039 1.99585 6.26038 2.11853 5.85571C2.27829 5.33112 2.51541 4.83215 2.82349 4.37256C3.11188 3.94318 2.99698 3.3609 2.56714 3.07251C2.13684 2.7832 1.55457 2.89764 1.26617 3.32886C0.855103 3.94135 0.53833 4.60876 0.325012 5.31006C0.17395 5.80536 0.453644 6.32904 0.948944 6.4801ZM14.5409 1.875H16.4667C16.9844 1.875 17.4042 1.45569 17.4042 0.9375C17.4042 0.419312 16.9844 9.375e-09 16.4667 9.375e-09H14.5409C14.0231 9.375e-09 13.6034 0.419312 13.6034 0.9375C13.6034 1.45569 14.0231 1.875 14.5409 1.875ZM22.245 1.875H24.1708C24.6886 1.875 25.1083 1.45569 25.1083 0.9375C25.1083 0.419312 24.6886 9.375e-09 24.1708 9.375e-09H22.245C21.7273 9.375e-09 21.3075 0.419312 21.3075 0.9375C21.3075 1.45569 21.7273 1.875 22.245 1.875ZM1.875 28.667V26.7407C1.875 26.2225 1.45523 25.8032 0.9375 25.8032C0.419769 25.8032 0 26.2225 0 26.7407V28.667C0 29.1852 0.419769 29.6045 0.9375 29.6045C1.45523 29.6045 1.875 29.1852 1.875 28.667ZM37.5 10.7465V11.7352C37.5 12.2534 37.9198 12.6727 38.4375 12.6727C38.9552 12.6727 39.375 12.2534 39.375 11.7352V10.7465C39.375 10.2283 38.9552 9.80896 38.4375 9.80896C37.9198 9.80896 37.5 10.2283 37.5 10.7465ZM37.0889 5.3833C37.2368 5.74768 37.5874 5.96832 37.9578 5.96832C38.075 5.96832 38.1944 5.94635 38.3102 5.89966C38.79 5.70465 39.0207 5.15808 38.8257 4.67834C38.5497 3.99811 38.1752 3.36273 37.7124 2.78961C37.3874 2.38586 36.7964 2.32269 36.394 2.64862C35.9912 2.97363 35.928 3.56415 36.2531 3.96698C36.6005 4.39728 36.8816 4.87427 37.0889 5.3833ZM8.44986 37.5H7.46155C6.94382 37.5 6.54327 37.9193 6.54327 38.4375C6.54327 38.9557 6.98227 39.375 7.5 39.375H8.44986C8.96759 39.375 9.38736 38.9557 9.38736 38.4375C9.38736 37.9193 8.96759 37.5 8.44986 37.5ZM8.76297 9.375e-09H7.5C7.24503 9.375e-09 6.9928 0.0128174 6.74423 0.0375366C6.22879 0.0897217 5.85342 0.549316 5.90515 1.06476C5.95413 1.54816 6.36154 1.90796 6.83716 1.90796C6.86829 1.90796 6.90033 1.90613 6.93192 1.90338C7.11914 1.88416 7.3082 1.875 7.5 1.875H8.76297C9.2807 1.875 9.70047 1.45569 9.70047 0.9375C9.70047 0.419312 9.2807 9.375e-09 8.76297 9.375e-09ZM2.29889 34.021C2.10159 33.5422 1.55365 33.316 1.07437 33.512C0.596008 33.7097 0.368042 34.2581 0.565796 34.7369C0.845947 35.4153 1.22452 36.0489 1.69098 36.6193C1.87637 36.8463 2.146 36.9635 2.41745 36.9635C2.62619 36.9635 2.8363 36.8939 3.01025 36.752C3.41125 36.4243 3.47031 35.8337 3.14301 35.4327C2.79282 35.0043 2.50854 34.5291 2.29889 34.021ZM43.9023 51.503C43.6839 51.5433 43.4294 51.5625 43.125 51.5625H18.75C15.6482 51.5625 13.125 49.0393 13.125 45.9375V21.5625C13.125 18.4607 15.6482 15.9375 18.75 15.9375H43.125C46.2268 15.9375 48.75 18.4607 48.75 21.5625V43.3411C48.75 43.8593 49.1698 44.2786 49.6875 44.2786C50.2052 44.2786 50.625 43.8593 50.625 43.3411V21.5625C50.625 17.4271 47.2604 14.0625 43.125 14.0625H18.75C14.6146 14.0625 11.25 17.4271 11.25 21.5625V45.9375C11.25 50.0729 14.6146 53.4375 18.75 53.4375H43.125C43.5443 53.4375 43.9096 53.4082 44.241 53.3469C44.7501 53.2535 45.0874 52.7646 44.9936 52.2556C44.9002 51.7465 44.4141 51.4059 43.9023 51.503ZM59.9922 48.6292C60.0412 49.0063 59.8576 49.3753 59.5276 49.5639L53.1871 53.1876L49.5639 59.5276C49.3954 59.8224 49.0833 60 48.7505 60C48.7102 60 48.6699 59.9973 48.6292 59.9918C48.252 59.9432 47.942 59.6713 47.8441 59.3042L44.0941 45.2417C44.008 44.9185 44.1005 44.5734 44.3372 44.3372C44.5738 44.1 44.9167 44.0048 45.2417 44.0945L59.3042 47.8445C59.6713 47.9425 59.9432 48.252 59.9922 48.6292ZM56.6167 49.0677L46.3229 46.3229L49.0681 56.6162L51.6861 52.0349C51.769 51.8893 51.8893 51.7694 52.0349 51.6861L56.6167 49.0677ZM28.0536 20.2661C28.1987 20.6168 28.1186 21.0196 27.8503 21.2878L18.4753 30.6628C18.2959 30.8423 18.0565 30.9375 17.8125 30.9375C17.6917 30.9375 17.5699 30.9146 17.4536 30.8661C17.1034 30.7214 16.875 30.379 16.875 30V22.5C16.875 20.9491 18.1366 19.6875 19.6875 19.6875H27.1875C27.5665 19.6875 27.9085 19.9155 28.0536 20.2661ZM24.9243 21.5625H19.6875C19.1707 21.5625 18.75 21.9827 18.75 22.5V27.7368L24.9243 21.5625Z" fill="url(#paint0_linear_4670_9934)"/>
</g>
<defs>
<linearGradient id="paint0_linear_4670_9934" x1="30" y1="0" x2="30" y2="60" gradientUnits="userSpaceOnUse">
<stop stop-color="#3049F3"/>
<stop offset="0.5" stop-color="#F299DE"/>
<stop offset="1" stop-color="#E530AD"/>
</linearGradient>
<clipPath id="clip0_4670_9934">
<rect width="60" height="60" fill="white"/>
</clipPath>
</defs>
</svg>
