<svg width="16" height="15" viewBox="0 0 16 15" fill="none" xmlns="http://www.w3.org/2000/svg">
<path d="M7.74322 0.463526C7.8929 0.0028708 8.5446 0.00286996 8.69428 0.463525L10.1271 4.87336C10.1941 5.07937 10.386 5.21885 10.6026 5.21885H15.2394C15.7238 5.21885 15.9252 5.83865 15.5333 6.12336L11.7821 8.84878C11.6068 8.9761 11.5335 9.20179 11.6004 9.4078L13.0333 13.8176C13.183 14.2783 12.6557 14.6613 12.2639 14.3766L8.51264 11.6512C8.3374 11.5239 8.1001 11.5239 7.92486 11.6512L4.17363 14.3766C3.78178 14.6613 3.25453 14.2783 3.40421 13.8176L4.83705 9.4078C4.90399 9.20179 4.83066 8.9761 4.65542 8.84878L0.904191 6.12336C0.512334 5.83866 0.713722 5.21885 1.19808 5.21885H5.83485C6.05147 5.21885 6.24344 5.07937 6.31038 4.87336L7.74322 0.463526Z" fill="#FFD029"/>
</svg>
