<svg width="60" height="60" viewBox="0 0 60 60" fill="none" xmlns="http://www.w3.org/2000/svg">
<path d="M46.25 10H13.75C12.3693 10 11.25 11.1193 11.25 12.5V52.5C11.25 53.8807 12.3693 55 13.75 55H46.25C47.6307 55 48.75 53.8807 48.75 52.5V12.5C48.75 11.1193 47.6307 10 46.25 10Z" stroke="url(#paint0_linear_4670_63)" stroke-width="2" stroke-linejoin="round"/>
<path d="M22.5 5V12.5" stroke="url(#paint1_linear_4670_63)" stroke-width="2" stroke-linecap="round" stroke-linejoin="round"/>
<path d="M37.5 5V12.5" stroke="url(#paint2_linear_4670_63)" stroke-width="2" stroke-linecap="round" stroke-linejoin="round"/>
<path d="M20 23.75H40" stroke="url(#paint3_linear_4670_63)" stroke-width="2" stroke-linecap="round" stroke-linejoin="round"/>
<path d="M20 33.75H35" stroke="url(#paint4_linear_4670_63)" stroke-width="2" stroke-linecap="round" stroke-linejoin="round"/>
<path d="M20 43.75H30" stroke="url(#paint5_linear_4670_63)" stroke-width="2" stroke-linecap="round" stroke-linejoin="round"/>
<defs>
<linearGradient id="paint0_linear_4670_63" x1="11.25" y1="32.5" x2="48.75" y2="32.5" gradientUnits="userSpaceOnUse">
<stop stop-color="#E530AD"/>
<stop offset="1" stop-color="#6757F1"/>
</linearGradient>
<linearGradient id="paint1_linear_4670_63" x1="22.5" y1="8.75" x2="23.5" y2="8.75" gradientUnits="userSpaceOnUse">
<stop stop-color="#E530AD"/>
<stop offset="1" stop-color="#6757F1"/>
</linearGradient>
<linearGradient id="paint2_linear_4670_63" x1="37.5" y1="8.75" x2="38.5" y2="8.75" gradientUnits="userSpaceOnUse">
<stop stop-color="#E530AD"/>
<stop offset="1" stop-color="#6757F1"/>
</linearGradient>
<linearGradient id="paint3_linear_4670_63" x1="20" y1="24.25" x2="40" y2="24.25" gradientUnits="userSpaceOnUse">
<stop stop-color="#E530AD"/>
<stop offset="1" stop-color="#6757F1"/>
</linearGradient>
<linearGradient id="paint4_linear_4670_63" x1="20" y1="34.25" x2="35" y2="34.25" gradientUnits="userSpaceOnUse">
<stop stop-color="#E530AD"/>
<stop offset="1" stop-color="#6757F1"/>
</linearGradient>
<linearGradient id="paint5_linear_4670_63" x1="20" y1="44.25" x2="30" y2="44.25" gradientUnits="userSpaceOnUse">
<stop stop-color="#E530AD"/>
<stop offset="1" stop-color="#6757F1"/>
</linearGradient>
</defs>
</svg>
