<svg width="158" height="166" viewBox="0 0 158 166" fill="none" xmlns="http://www.w3.org/2000/svg">
<path d="M79.0013 28C85.9411 28 92.5967 30.8973 97.5039 36.0546C102.411 41.2118 105.168 48.2065 105.168 55.5C105.168 62.7935 102.411 69.7882 97.5039 74.9454C92.5967 80.1027 85.9411 83 79.0013 83C72.0615 83 65.4059 80.1027 60.4987 74.9454C55.5915 69.7882 52.8346 62.7935 52.8346 55.5C52.8346 48.2065 55.5915 41.2118 60.4987 36.0546C65.4059 30.8973 72.0615 28 79.0013 28ZM79.0013 96.75C107.915 96.75 131.335 109.056 131.335 124.25V138H26.668V124.25C26.668 109.056 50.0871 96.75 79.0013 96.75Z" fill="#172936" fill-opacity="0.5"/>
</svg>
