<svg width="20" height="20" viewBox="0 0 20 20" fill="none" xmlns="http://www.w3.org/2000/svg">
<path fill-rule="evenodd" clip-rule="evenodd" d="M2.64095 2.64095C2.73121 2.5507 2.85361 2.5 2.98125 2.5H10.7687C10.8964 2.5 11.0188 2.5507 11.109 2.64095C11.1993 2.73121 11.25 2.85361 11.25 2.98125V3.84625C11.25 4.53661 11.8096 5.09625 12.5 5.09625C13.1904 5.09625 13.75 4.53661 13.75 3.84625V2.98125C13.75 2.19057 13.4359 1.43228 12.8768 0.873188C12.3177 0.314095 11.5594 0 10.7687 0H2.98125C2.19057 0 1.43228 0.314095 0.873188 0.873188C0.314095 1.43228 0 2.19057 0 2.98125V10.7687C0 11.5594 0.314095 12.3177 0.873188 12.8768C1.43228 13.4359 2.19057 13.75 2.98125 13.75H3.84625C4.53661 13.75 5.09625 13.1904 5.09625 12.5C5.09625 11.8096 4.53661 11.25 3.84625 11.25H2.98125C2.85361 11.25 2.73121 11.1993 2.64095 11.109C2.5507 11.0188 2.5 10.8964 2.5 10.7687V2.98125C2.5 2.85361 2.5507 2.73121 2.64095 2.64095ZM9.23125 6.25C7.58464 6.25 6.25 7.58464 6.25 9.23125V17.0187C6.25 18.6654 7.58464 20 9.23125 20H17.0187C18.6654 20 20 18.6654 20 17.0187V9.23125C20 7.58464 18.6654 6.25 17.0187 6.25H9.23125ZM8.75 9.23125C8.75 8.96536 8.96536 8.75 9.23125 8.75H17.0187C17.2846 8.75 17.5 8.96536 17.5 9.23125V17.0187C17.5 17.2846 17.2846 17.5 17.0187 17.5H9.23125C8.96536 17.5 8.75 17.2846 8.75 17.0187V9.23125Z" fill="#6757F1"/>
</svg>
