<svg width="24" height="24" viewBox="0 0 24 24" fill="none" xmlns="http://www.w3.org/2000/svg">
<path d="M12 24C5.37238 24 0 18.6276 0 12C0 5.37238 5.37238 0 12 0C18.6276 0 24 5.37238 24 12C24 18.6276 18.6276 24 12 24ZM12 1.30544C6.12552 1.30544 1.30544 6.12552 1.30544 12C1.30544 17.8745 6.12552 22.6946 12 22.6946C17.8745 22.6946 22.6946 17.8745 22.6946 12C22.6946 6.12552 17.8745 1.30544 12 1.30544Z" fill="#6757F1"/>
<path d="M5.62305 11.2969H18.3762V12.7027H5.62305V11.2969Z" fill="#6757F1"/>
<path d="M11.2969 5.62354H12.7027V18.3767H11.2969V5.62354Z" fill="#6757F1"/>
</svg>
