<svg width="22" height="18" viewBox="0 0 22 18" fill="none" xmlns="http://www.w3.org/2000/svg">
<path d="M2.03495 7.80007C8.58078 4.92039 17.0516 1.40945 18.2209 0.923515C21.2881 -0.348359 22.2292 -0.104609 21.7599 2.71206C21.423 4.73653 20.4506 11.4391 19.6756 15.611C19.2157 18.085 18.1839 18.3782 16.5615 17.3079C15.7813 16.7928 11.8433 14.1886 10.9886 13.5772C10.2084 13.0199 9.13234 12.3495 10.4818 11.0292C10.962 10.5589 14.1099 7.5532 16.5625 5.21362C16.8839 4.90632 16.4803 4.40164 16.1094 4.64799C12.8037 6.84018 8.22036 9.88288 7.63703 10.2792C6.75578 10.8777 5.90943 11.1522 4.39016 10.7157C3.24224 10.386 2.12089 9.99278 1.68443 9.84278C0.00370145 9.2657 0.402659 8.5183 2.03495 7.80007Z" fill="white"/>
</svg>
